<?xml version="1.0" encoding="UTF-8"?>
<svg width="276px" height="308px" viewBox="0 0 276 308" version="1.1" xmlns="http://www.w3.org/2000/svg" xmlns:xlink="http://www.w3.org/1999/xlink">
    <!-- Generator: Sketch 40.3 (33839) - http://www.bohemiancoding.com/sketch -->
    <title>ds</title>
    <desc>Created with Sketch.</desc>
    <defs></defs>
    <g class="Page-1" stroke="none" stroke-width="1" fill="none" fill-rule="evenodd">
        <g id="ds">
            <g id="Group">
                <path d="M17.937,64.67 L120.67,5.357 C131.394,-0.835 144.607,-0.835 155.331,5.357 L258.064,64.67 C268.788,70.862 275.395,82.304 275.395,94.688 L275.395,213.313 C275.395,225.696 268.789,237.139 258.064,243.331 L155.331,302.644 C144.607,308.836 131.394,308.836 120.67,302.644 L17.937,243.33 C7.213,237.138 0.606,225.696 0.606,213.312 L0.606,94.687 C0.606,82.304 7.212,70.861 17.937,64.67 L17.937,64.67 Z" id="Shape" fill="#FFFFFF"></path>
                <g transform="translate(51.000000, 59.000000)" id="Shape" fill="#428BCA">
                    <path d="M70.989,7.892 L169.996,7.892 C171.916,7.892 173.472,6.336 173.472,4.416 L173.472,4.346 C173.472,2.426 171.916,0.87 169.996,0.87 L70.989,0.87 C36.741,0.87 8.136,25.435 1.833,57.868 L102.048,57.892 C136.861,57.892 165.912,85.537 166.443,120.346 C166.984,155.776 138.32,184.772 103.012,184.772 L4.004,184.772 C2.084,184.772 0.528,186.328 0.528,188.248 L0.528,188.318 C0.528,190.238 2.084,191.794 4.004,191.794 L103.012,191.794 C142.095,191.794 173.849,159.808 173.469,120.638 C173.093,81.847 140.905,50.871 102.112,50.871 L51.178,50.871 C56.311,45.9 63.297,42.831 70.989,42.831 L169.996,42.831 C171.916,42.831 173.472,41.275 173.472,39.355 L173.472,39.285 C173.472,37.365 171.916,35.809 169.996,35.809 L70.989,35.809 C59.016,35.809 48.416,41.769 41.978,50.871 L29.257,50.871 C36.839,35.469 52.694,24.842 70.99,24.842 L169.997,24.842 C171.917,24.842 173.473,23.286 173.473,21.366 L173.473,21.296 C173.473,19.376 171.917,17.82 169.997,17.82 L70.99,17.82 C48.728,17.82 29.604,31.488 21.552,50.871 L10.955,50.871 C19.489,25.902 43.168,7.892 70.989,7.892 L70.989,7.892 Z"></path>
                    <path d="M4.004,174.843 L102.2,174.843 C131.565,174.843 156.069,151.524 156.517,122.162 C156.973,92.277 132.795,67.82 103.012,67.82 L4.039,67.82 L4.005,67.82 C2.103,67.82 0.531,69.348 0.528,71.25 L0.528,71.331 L0.528,71.412 C0.53,73.314 2.103,74.842 4.005,74.842 L4.039,74.842 L102.232,74.842 C127.688,74.842 149.009,94.98 149.493,120.432 C149.988,146.476 128.945,167.821 103.012,167.821 L4.004,167.821 C2.084,167.821 0.528,169.377 0.528,171.297 L0.528,171.367 C0.528,173.287 2.084,174.843 4.004,174.843 L4.004,174.843 Z"></path>
                    <path d="M4.004,156.855 L102.345,156.855 C121.743,156.855 138.066,141.581 138.525,122.188 C138.997,102.211 122.884,85.809 103.013,85.809 L2.03,85.809 C8.725,117.739 37.098,141.793 70.99,141.793 L109.888,141.793 C113.864,140.45 117.323,137.987 119.887,134.771 L70.989,134.771 C43.552,134.771 20.134,117.261 11.306,92.831 L22.001,92.831 C30.297,111.66 49.128,124.843 70.989,124.843 L124.293,124.843 C124.481,123.697 124.604,122.53 124.604,121.332 C124.604,120.134 124.481,118.967 124.293,117.821 L70.989,117.821 C53.108,117.821 37.563,107.668 29.789,92.831 L42.736,92.831 C49.231,101.346 59.477,106.854 70.989,106.854 L118.99,106.854 C115.477,102.977 110.595,100.365 105.1,99.832 L70.989,99.832 C63.848,99.832 57.317,97.186 52.31,92.831 L102.998,92.831 L103.011,92.831 C110.152,92.831 116.683,95.477 121.689,99.832 L121.677,99.832 C123.984,101.839 125.967,104.208 127.534,106.854 L127.546,106.854 C129.495,110.144 130.798,113.858 131.287,117.821 L131.275,117.821 C131.417,118.973 131.499,120.143 131.499,121.332 C131.499,122.521 131.417,123.691 131.275,124.843 L131.287,124.843 C130.848,128.394 129.76,131.745 128.136,134.771 L128.124,134.771 C126.722,137.382 124.922,139.747 122.81,141.793 L122.822,141.793 C117.689,146.765 110.704,149.834 103.011,149.834 L102.998,149.834 L4.003,149.834 C2.083,149.834 0.527,151.39 0.527,153.31 L0.527,153.38 C0.528,155.299 2.084,156.855 4.004,156.855 L4.004,156.855 Z"></path>
                </g>
            </g>
        </g>
    </g>
</svg>
