<?xml version="1.0" encoding="UTF-8" standalone="no"?>
<svg width="463px" height="444px" viewBox="0 0 463 444" version="1.1" xmlns="http://www.w3.org/2000/svg" xmlns:xlink="http://www.w3.org/1999/xlink" xmlns:sketch="http://www.bohemiancoding.com/sketch/ns">
    <g id="Page-1" stroke="none" stroke-width="1" fill="none" fill-rule="evenodd" sketch:type="MSPage">
        <g id="logo" sketch:type="MSLayerGroup" transform="translate(-27.000000, -28.000000)">
            <g id="Circle" transform="translate(27.000000, 28.000000)" fill="#1C3764" sketch:type="MSShapeGroup">
                <circle id="Blue" cx="222" cy="222" r="222"></circle>
            </g>
            <g id="DS" transform="translate(197.000000, 91.000000)" fill="#FFFFFF" sketch:type="MSShapeGroup">
                <path d="M0.6,34.4 C0.6,18.7 13.2,5.5 29.7,4 C51.1,2 75.1,0.9 100.1,0.9 C164.1,0.9 208.2,13.3 239.7,38.2 C272.7,63.6 293,101.9 293,156.9 C293,214.4 272.2,257.5 239.7,285.2 C205.7,314.4 151.4,329.3 84.9,329.3 C64.9,329.3 47.6,328.7 32.7,327.8 C14.6,326.7 0.6,312.5 0.6,295.5 L0.6,34.4 L0.6,34.4 Z M63,267.4 C63,275.4 69.7,281.9 78.1,282.2 C84.2,282.4 90.9,282.4 97.5,282.4 C178.7,282.9 227,240.7 227,158.9 C227.5,87.6 183.9,46.9 105.7,46.9 C94.3,46.9 84.8,47.4 77.1,48.1 C69.1,48.9 63,55.2 63,62.8 L63,267.4 L63,267.4 Z" id="Shape"></path>
                <path d="M19.7,247.4 C40.7,257 73.1,266.5 106.4,266.5 C142.3,266.5 182.7,257.4 182.7,237.4 C182.7,218.3 144.9,203.2 103.3,190 C45.8,172.2 8.4,144 8.4,99.4 C8.4,47 57.7,7 139.3,7 C178.3,7 205.8,21.3 226.3,29.5 L206.6,88.1 C185.2,64 151.9,52 116,57.5 C82.5,62.6 67.4,77.4 67.4,93.3 C67.4,112.9 107,121.7 151.6,136.7 C212.7,156.7 241.4,185 241.4,228.2 C241.4,279.7 196.7,323.4 101.8,323.4 C62.3,323.4 23.3,314.3 3.8,304.7 L19.7,247.4 L19.7,247.4 Z" id="Shape"></path>
            </g>
        </g>
    </g>
</svg>
